<?xml version="1.0" encoding="UTF-8" standalone="yes"?>
<svg xmlns="http://www.w3.org/2000/svg" xmlns:xlink="http://www.w3.org/1999/xlink" width="30px" height="30px" viewBox="0 0 30 30" version="1.1" fill="#000000">
  <g id="surface85211">
    <path style=" stroke:none;fill-rule:nonzero;fill:#000000;fill-opacity:1;" d="M 4.199219 5.398438 C 2.550781 5.398438 1.199219 6.75 1.199219 8.398438 L 1.199219 21.601562 C 1.199219 23.25 2.550781 24.601562 4.199219 24.601562 L 25.800781 24.601562 C 27.449219 24.601562 28.800781 23.25 28.800781 21.601562 L 28.800781 8.398438 C 28.800781 6.75 27.449219 5.398438 25.800781 5.398438 Z M 4.199219 6.601562 L 25.800781 6.601562 C 26.800781 6.601562 27.601562 7.398438 27.601562 8.398438 L 27.601562 9.601562 L 2.398438 9.601562 L 2.398438 8.398438 C 2.398438 7.398438 3.199219 6.601562 4.199219 6.601562 Z M 2.398438 12.601562 L 27.601562 12.601562 L 27.601562 21.601562 C 27.601562 22.601562 26.800781 23.398438 25.800781 23.398438 L 4.199219 23.398438 C 3.199219 23.398438 2.398438 22.601562 2.398438 21.601562 Z M 5.398438 14.398438 L 5.398438 15.601562 L 15 15.601562 L 15 14.398438 Z M 5.398438 14.398438 "/>
  </g>
</svg>
